Nederland
Komedie
85 minuten

geregisseerd door Teddy Cherim en Kees van Nieuwkerk
met Achmed Akkabi, Sallie Harmsen en Halina Reijn

Film over vijf Amsterdamse jongeren (twee jongens en drie meisjes) die na het behalen van hun eindexamen een feest organiseren maar met de kaartverkoop wil het niet zo vlotten. Ze bedenken een gewaagd plan om de zaal toch vol te krijgen. Daarvoor weten ze een jongen uit de provincie te strikken die naar de stad is gekomen om te gaan studeren en probeert "in te burgeren". Buiten hun gezamenlijke wens om een superfeest voor elkaar te krijgen hebben ze ook allemaal hun eigen belangen bij het slagen van het feest. Maar niet alles loopt zoals gepland.

English:

Comedy about the adventures of a group of friends in Amsterdam, who are planning a party during their summer holiday. When the ticket sales are disappointing they think of a new and exiting way to attract more people to the party.
 
http://www.moviemeter.nl/film/66336
 
http://www.imdb.com/title/tt1666332/

Audio: Dutch / Nederlands.  No Subs / Geen ondertitels.

General
Complete name                    : Sterke Verhalen-AC3-DVDRip 2010 Nederlands TBS\Sterke Verhalen-AC3-DVDRip 2010 Nederlands.avi
Format                           : AVI
Format/Info                      : Audio Video Interleave
File size                        : 1.36 GiB
Duration                         : 1h 21mn
Overall bit rate                 : 2 380 Kbps
Writing application              : VirtualDubMod 1.5.4.1 (build 2178/release)
Writing library                  : VirtualDubMod build 2178/release

Video
ID                               : 0
Format                           : MPEG-4 Visual
Format profile                   : Simple@L3
Format settings, BVOP            : No
Format settings, QPel            : No
Format settings, GMC             : No warppoints
Format settings, Matrix          : Default (H.263)
Codec ID                         : XVID
Codec ID/Hint                    : XviD
Duration                         : 1h 21mn
Bit rate                         : 1 922 Kbps
Width                            : 720 pixels
Height                           : 304 pixels
Display aspect ratio             : 2.35:1
Frame rate                       : 25.000 fps
Resolution                       : 8 bits
Colorimetry                      : 4:2:0
Scan type                        : Progressive
Bits/(Pixel*Frame)               : 0.351
Stream size                      : 1.10 GiB (81%)
Writing library                  : XviD 1.1.2 (UTC 2006-11-01)

Audio
ID                               : 1
Format                           : AC-3
Format/Info                      : Audio Coding 3
Codec ID                         : 2000
Duration                         : 1h 21mn
Bit rate mode                    : Constant
Bit rate                         : 448 Kbps
Channel(s)                       : 6 channels
Channel positions                : Front: L C R, Surround: L R, LFE
Sampling rate                    : 48.0 KHz
Stream size                      : 262 MiB (19%)
Alignment                        : Split accross interleaves
Interleave, duration             : 40 ms (1.00 video frame)
Interleave, preload duration     : 500 ms

Thanks to hannes3-FGTR.

Blackbeard  TBS